<svg width="311" height="76" viewBox="0 0 311 76" fill="none" xmlns="http://www.w3.org/2000/svg">
<g opacity="0.1">
<path fill-rule="evenodd" clip-rule="evenodd" d="M251.724 39.0966C253.206 38.6828 253.912 39.634 254.846 40.2865C264.042 46.7124 260.867 47.3997 272.476 35.6885L286.051 22.0837C286.966 21.1695 289.43 18.092 291.197 18.0606C292.688 18.0342 293.314 19.252 292.779 20.6139L266.27 53.0462C265.51 53.948 264.912 54.6261 264.217 55.5283C260.966 59.7505 259.627 54.9797 256.036 48.4616C254.578 45.8146 251.284 40.9307 251.724 39.0965L251.724 39.0966ZM310.462 39.8964C311.71 33.6184 308.602 28.7104 305.373 25.7119C301.816 22.4093 303.875 23.0253 302.981 18.1243C301.591 10.4967 295.472 5.19647 285.973 6.26584C280.514 6.8804 281.066 1.1921 272.7 0.11246C269.622 -0.284762 266.665 0.407103 264.377 1.60822C261.669 3.0294 260.628 5.01634 258.689 5.88792C255.899 7.1419 249.132 4.03414 243.453 9.6912C236.634 16.4841 239.577 20.4851 238.563 24.4144C238.084 26.2704 235.165 28.1384 233.966 29.816C228.645 37.2605 230.927 45.1895 236.901 50.6787C240.727 54.1936 236.196 58.0716 242.195 65.0099C247.598 71.258 252.676 69.5937 256.738 69.6164C259.366 69.6311 261.145 72.228 262.822 73.3993C267.487 76.6579 273.346 76.7298 278.116 73.9631C280.441 72.6141 281.975 70.0913 283.616 69.5102C285.672 68.7821 288.946 70.3771 292.265 69.8806C299.736 68.763 305.583 61.8601 304.597 53.3233C303.859 46.9315 308.722 48.6474 310.462 39.8966V39.8964Z" fill="black"/>
<path fill-rule="evenodd" clip-rule="evenodd" d="M251.724 39.0968C251.284 40.9311 254.577 45.8149 256.036 48.462C259.627 54.98 260.965 59.7509 264.216 55.5286C264.911 54.6264 265.509 53.9483 266.269 53.0466L292.778 20.6142C293.313 19.2522 292.688 18.0345 291.196 18.061C289.429 18.0924 286.966 21.1699 286.05 22.0841L272.476 35.6888C260.867 47.4001 264.041 46.7128 254.845 40.2868C253.911 39.6343 253.205 38.6831 251.724 39.0969L251.724 39.0968Z" fill="white"/>
<path fill-rule="evenodd" clip-rule="evenodd" d="M113.193 75.5785C117.021 77.1566 126.607 73.9036 129.784 72.4063C141.684 66.7964 134.013 66.4539 143.433 68.8997C164.279 74.3121 190.077 65.71 197.739 45.8485C202.464 33.6008 198.238 22.7208 192.026 15.1483C180.324 0.884466 153.568 -5.48335 132.568 5.7286C118.231 13.3837 108.902 28.3603 114.564 44.8691C116.053 49.2115 119.534 54.8549 122.382 56.9934C122.512 59.9251 119.439 65.224 118.186 67.1747C115.389 71.5279 112.575 73.5053 113.193 75.5784V75.5785Z" fill="black"/>
<path fill-rule="evenodd" clip-rule="evenodd" d="M40.5566 75.934C41.8744 75.3315 65.4584 53.8032 68.6112 51.1453C74.1078 46.5114 78.84 39.4999 80.7444 31.8803C86.7472 7.86344 62.2832 -8.98403 45.4006 5.2781C42.5775 7.66293 41.5539 9.9093 40.5565 10.6567C38.588 8.55548 38.7485 7.5108 35.6672 5.01842C14.3431 -12.2296 -14.1481 18.3322 8.05711 45.9142C10.513 48.9648 25.146 62.1976 29.5639 66.102L37.8348 73.5479C38.9236 74.6023 39.4861 75.2357 40.5566 75.934Z" fill="black"/>
</g>
</svg>
