<svg width="40" height="40" viewBox="0 0 40 40" fill="none" xmlns="http://www.w3.org/2000/svg">
<path fill-rule="evenodd" clip-rule="evenodd" d="M10.4037 20.5915C11.1464 20.3736 11.5007 20.8746 11.969 21.2182C16.5803 24.6026 14.9885 24.9646 20.81 18.7965L27.617 11.6311C28.0763 11.1496 29.3117 9.52877 30.1976 9.51223C30.9456 9.49831 31.2593 10.1397 30.9911 10.857L17.6979 27.9386C17.3167 28.4135 17.0168 28.7707 16.6684 29.2458C15.0379 31.4696 14.3667 28.9569 12.566 25.5239C11.8347 24.1298 10.183 21.5575 10.4037 20.5915L10.4037 20.5915ZM39.8585 21.0128C40.4844 17.7063 38.9256 15.1213 37.3064 13.542C35.5229 11.8026 36.5552 12.127 36.1072 9.54579C35.4099 5.52842 32.3417 2.7369 27.578 3.30011C24.8405 3.62379 25.1175 0.62786 20.9222 0.0592306C19.3788 -0.14998 17.896 0.214415 16.7483 0.84702C15.3903 1.59553 14.8687 2.64202 13.8961 3.10107C12.4968 3.76152 9.10379 2.12471 6.25606 5.10419C2.83659 8.68189 4.31233 10.7891 3.80359 12.8586C3.5633 13.8362 2.09986 14.82 1.49854 15.7036C-1.16986 19.6245 -0.0252312 23.8005 2.97042 26.6916C4.88872 28.5429 2.61695 30.5853 5.6252 34.2396C8.3342 37.5304 10.8809 36.6538 12.9176 36.6658C14.2357 36.6736 15.1278 38.0413 15.9686 38.6582C18.3079 40.3745 21.2461 40.4123 23.638 38.9551C24.8042 38.2446 25.5731 36.9159 26.3961 36.6098C27.4271 36.2264 29.069 37.0664 30.7333 36.805C34.4799 36.2163 37.4117 32.5807 36.9173 28.0845C36.5472 24.718 38.9859 25.6218 39.8585 21.0129V21.0128Z" fill="black"/>
<path fill-rule="evenodd" clip-rule="evenodd" d="M10.4034 20.5917C10.1827 21.5577 11.8344 24.13 12.5657 25.5241C14.3664 28.9571 15.0376 31.4698 16.6681 29.246C17.0165 28.7709 17.3164 28.4137 17.6976 27.9388L30.9909 10.8572C31.2591 10.1398 30.9453 9.49847 30.1973 9.51243C29.3115 9.52897 28.076 11.1498 27.6167 11.6313L20.8097 18.7967C14.9883 24.9648 16.5801 24.6029 11.9687 21.2184C11.5005 20.8747 11.1461 20.3738 10.4034 20.5917L10.4034 20.5917Z" fill="white"/>
</svg>
